<svg width="30" height="36" viewBox="0 0 30 36" fill="none" xmlns="http://www.w3.org/2000/svg">
<path d="M0 25.6155V7C0 5.464 0.416667 4.23517 1.25 3.3135C2.08333 2.39183 3.1955 1.688 4.5865 1.202C5.9775 0.715999 7.57683 0.394166 9.3845 0.236499C11.1922 0.0788324 13.064 0 15 0C17.0717 0 19.0185 0.0788324 20.8405 0.236499C22.6622 0.394166 24.2532 0.714999 25.6135 1.199C26.9742 1.683 28.0453 2.38683 28.827 3.3105C29.609 4.23417 30 5.464 30 7V25.6155C30 27.4025 29.3827 28.9133 28.148 30.148C26.9133 31.3827 25.4025 32 23.6155 32L26.6155 35V36H23.7695L19.7695 32H10.2305L6.2305 36H3.3845V35L6.3845 32C4.5975 32 3.08667 31.3827 1.852 30.148C0.617333 28.9133 0 27.4025 0 25.6155ZM3 16H13.5V8.5385H3V16ZM16.5 16H27V8.5385H16.5V16ZM9.871 25.8755C10.3673 25.3825 10.6155 24.7588 10.6155 24.0045C10.6155 23.2502 10.3688 22.625 9.8755 22.129C9.3825 21.6327 8.75883 21.3845 8.0045 21.3845C7.25017 21.3845 6.625 21.6312 6.129 22.1245C5.63267 22.6175 5.3845 23.2412 5.3845 23.9955C5.3845 24.7498 5.63117 25.375 6.1245 25.871C6.6175 26.3673 7.24117 26.6155 7.9955 26.6155C8.74983 26.6155 9.375 26.3688 9.871 25.8755ZM23.871 25.8755C24.3673 25.3825 24.6155 24.7588 24.6155 24.0045C24.6155 23.2502 24.3688 22.625 23.8755 22.129C23.3825 21.6327 22.7588 21.3845 22.0045 21.3845C21.2502 21.3845 20.625 21.6312 20.129 22.1245C19.6327 22.6175 19.3845 23.2412 19.3845 23.9955C19.3845 24.7498 19.6312 25.375 20.1245 25.871C20.6175 26.3673 21.2412 26.6155 21.9955 26.6155C22.7498 26.6155 23.375 26.3688 23.871 25.8755Z" fill="#5D5D5D"/>
</svg>
