<?xml version="1.0" encoding="UTF-8"?>
<svg id="_レイヤー_2" data-name=" レイヤー 2" xmlns="http://www.w3.org/2000/svg" viewBox="0 0 1467.16 1481.14">
  <defs>
    <style>
      .cls-1 {
        fill: #050505;
      }
    </style>
  </defs>
  <g id="_レイヤー_1-2" data-name=" レイヤー 1-2">
    <path class="cls-1" d="M645.32,1214.28c68.28,8.66,138.59-34.71,157.53-107.48,4.34-17.73,5.56-36.19,4.51-54.45-1.95-46.83-25-75.78-30.93-120.84-8.95-67.45,2.38-144.18,65.79-178.42,32.29-17.44,62.36-24.91,99.06-22.79,44.28,2.56,84.93,25.03,129.82,27.85,82.14,5.15,143.74-54.8,131.17-137.97-5.63-40.62-33.97-78.7-73.54-94.27-37.6-15.9-80.94-8.89-115.55,11.42-41.39,23.6-63.2,69.14-104.66,92.09-74.71,43.83-180.22,21.84-227.88-49.87-14.4-20.86-24.41-44.24-32.4-68.05-19.59-57-25.2-121.47-61.75-170.76-67.15-92.59-187.76-99.1-270.96-21.3-90.84,88.35-57.07,228.21,53.39,277.82,44.08,19.21,93.87,19.19,141.5,24.47,48.74,4.49,96.87,21.59,129.58,57.45,35.47,38.28,54.86,95,42.1,145.96-8.3,32.97-25.93,55.74-49.85,80.07-40.22,40.45-79.51,58.23-99.93,112.97-16.93,42.73-13.2,95.97,14.45,133.61,24.97,34.68,57.34,56.77,98.38,62.48l.17.02h0Z"/>
  </g>
</svg>